<?xml version="1.0" encoding="UTF-8" standalone="no"?>
<!-- Created with Inkscape (http://www.inkscape.org/) -->

<svg
   xmlns:dc="http://purl.org/dc/elements/1.1/"
   xmlns:cc="http://creativecommons.org/ns#"
   xmlns:rdf="http://www.w3.org/1999/02/22-rdf-syntax-ns#"
   xmlns:svg="http://www.w3.org/2000/svg"
   xmlns="http://www.w3.org/2000/svg"
   xmlns:sodipodi="http://sodipodi.sourceforge.net/DTD/sodipodi-0.dtd"
   xmlns:inkscape="http://www.inkscape.org/namespaces/inkscape"
   width="86mm"
   height="111mm"
   viewBox="0 0 304.72426 393.30685"
   id="svg2"
   version="1.1"
   inkscape:version="0.91 r13725"
   sodipodi:docname="wall.svg">
  <defs
     id="defs4" />
  <sodipodi:namedview
     id="base"
     pagecolor="#ffffff"
     bordercolor="#666666"
     borderopacity="1.0"
     inkscape:pageopacity="0.0"
     inkscape:pageshadow="2"
     inkscape:zoom="0.7"
     inkscape:cx="120.51757"
     inkscape:cy="144.6873"
     inkscape:document-units="px"
     inkscape:current-layer="layer1"
     showgrid="false"
     inkscape:window-width="1366"
     inkscape:window-height="713"
     inkscape:window-x="0"
     inkscape:window-y="30"
     inkscape:window-maximized="1" />
  <metadata
     id="metadata7">
    <rdf:RDF>
      <cc:Work
         rdf:about="">
        <dc:format>image/svg+xml</dc:format>
        <dc:type
           rdf:resource="http://purl.org/dc/dcmitype/StillImage" />
        <dc:title />
      </cc:Work>
    </rdf:RDF>
  </metadata>
  <g
     inkscape:label="Camada 1"
     inkscape:groupmode="layer"
     id="layer1"
     transform="translate(0,-659.05558)">
    <g
       id="g4174">
      <path
         inkscape:connector-curvature="0"
         id="rect4175"
         d="m 153.54292,686.76912 c -28.73173,26.23832 -57.4635,52.4766 -86.19531,78.71484 -5.32896,1.25428 -14.80153,-2.94777 -16.83399,3.03746 0,42.73231 0,85.46461 0,128.19692 3.94281,4.36653 12.21167,1.06963 17.99021,2.0957 31.71355,0 63.4271,0 95.14065,0 0.74495,5.18698 -2.9415,15.914 5.74747,14.14648 29.07571,0 58.15143,0 87.22714,0 4.13053,-4.18436 1.00767,-12.2672 1.98047,-18.10349 -0.0108,-42.42534 -0.004,-84.85153 -0.006,-127.27732 -3.9428,-4.36654 -12.21167,-1.06964 -17.99021,-2.09571 -9.77935,-7.09263 -18.5817,-16.70406 -27.98484,-24.76659 -19.69227,-17.98221 -39.38424,-35.96562 -59.07559,-53.94829 z"
         style="fill:#d7d7d7;fill-opacity:1;stroke:#ffffff;stroke-width:5.19999814;stroke-miterlimit:4;stroke-dasharray:none;stroke-opacity:1" />
      <rect
         ry="2.7844634"
         rx="1.8389319"
         y="885.6875"
         x="53.242218"
         height="20.708126"
         width="202.57892"
         id="rect4168"
         style="fill:#d7d7d7;fill-opacity:1;stroke:none;stroke-width:5.19999981;stroke-miterlimit:4;stroke-dasharray:none;stroke-opacity:1" />
    </g>
    <path
       style="fill:#276d3d;fill-opacity:1;stroke:#ffffff;stroke-width:3.20000005;stroke-miterlimit:4;stroke-dasharray:none;stroke-opacity:1"
       d="M 152.79492 6.1308594 C 132.7291 22.435871 113.6613 40.466754 94.054688 57.509766 C 66.734698 82.328594 38.141552 105.80471 11.320312 131.12695 C 26.331194 139.09303 44.700071 130.1727 56.462891 119.75 C 89.027453 91.77369 120.74203 62.789272 153.34961 34.857422 C 188.32592 66.029874 223.15687 97.375218 258.08789 128.60352 C 264.41517 136.29536 295.61301 139.13938 291.32031 127.96484 C 245.63802 87.390268 199.9687 46.738282 154.05469 6.4648438 L 152.79492 6.1308594 z M 90.578125 234.17383 C 64.853941 234.0906 38.069186 238.48111 17.998047 255.77734 C 7.9818896 264.17459 31.749243 252.76129 37.373047 252.55078 C 79.389687 244.57273 122.06019 252.30977 163.75977 258.49414 C 199.71345 263.65672 239.40979 267.75325 272.28516 249.00586 C 277.93222 245.75109 300.64011 229.54863 282.88086 237.79297 C 245.54829 251.90947 204.63641 244.7032 166.10156 240.57227 C 142.70769 237.86686 119.3027 234.3526 95.705078 234.24805 C 94.001849 234.20523 92.293071 234.17938 90.578125 234.17383 z M 194.18359 282.30664 C 179.61202 282.3283 168.33549 292.21239 162.82031 309.79688 C 156.14569 331.07804 159.66349 356.72078 171.2832 371.48828 C 174.62995 375.74168 179.47012 378.96657 185.4375 380.91797 C 187.90072 381.72357 192.48413 382.14737 196.61328 381.95117 C 213.20802 381.16277 225.95455 368.58208 230.20703 348.79688 C 232.10894 339.94791 231.82124 320.14956 229.68359 312.79688 C 223.68263 292.15595 212.18281 282.27984 194.18359 282.30664 z M 268.25391 282.3125 C 265.15123 282.35478 262.24771 282.68789 259.93555 283.33008 C 254.58783 284.81537 247.08057 290.19866 244.00391 294.75586 C 238.87158 302.35794 237.81546 314.95539 241.68359 322.43555 C 244.53217 327.94411 251.49899 333.61166 262.41016 339.29688 C 268.91366 342.68536 272.2178 346.31695 272.32812 350.19727 C 272.46086 354.86497 270.32251 358.01748 265.4082 360.39648 C 261.5374 362.2703 260.50369 362.38168 256.45898 361.36328 C 253.94379 360.72988 249.20439 358.43041 245.92773 356.25391 C 242.65108 354.07751 239.77712 352.29688 239.54102 352.29688 C 239.30491 352.29688 239.11328 357.61448 239.11328 364.11328 L 239.11328 375.92969 L 244.36328 378.08984 C 247.25078 379.27844 251.41328 380.69282 253.61328 381.23242 C 255.81328 381.77212 260.78788 382.08047 264.66797 381.91797 C 281.44845 381.21527 294.56551 368.97416 295.86328 352.80664 C 297.03188 338.24846 292.23941 330.89343 276.00586 322.33594 C 264.96125 316.51379 262.7793 314.49903 262.7793 310.12305 C 262.7793 305.59492 267.16916 302.29271 273.11328 302.34961 C 277.70015 302.3935 281.52103 303.97749 287.02734 308.11523 L 290.11328 310.43359 L 290.11328 298.50586 L 290.11328 286.57812 L 283.5918 284.4375 C 279.14722 282.97846 273.42503 282.24203 268.25391 282.3125 z M 39.541016 283.37109 C 34.913784 283.43359 34.081601 283.83155 33.714844 285.01758 C 32.304682 289.57787 9.7588496 376.12336 9.3496094 378.54688 L 8.8847656 381.29688 L 20.427734 381.29688 L 31.970703 381.29688 L 33.056641 376.04688 C 33.653451 373.15936 34.483674 368.77188 34.902344 366.29688 L 35.664062 361.79688 L 44.777344 361.51172 L 53.892578 361.22461 L 55.654297 371.26172 L 57.417969 381.29688 L 69.207031 381.29688 C 75.690547 381.29688 81.234234 380.90975 81.527344 380.43555 C 81.820444 379.96125 77.795115 363.42375 72.582031 343.68555 C 67.368947 323.94728 61.696624 302.34609 59.976562 295.68359 L 56.849609 283.57031 L 45.556641 283.4043 C 43.047556 283.36751 41.083426 283.35026 39.541016 283.37109 z M 89.613281 283.79688 L 89.351562 331.29688 C 89.208302 357.4218 89.328791 379.41633 89.619141 380.17383 C 90.430381 382.29023 127.48957 381.1376 135.38867 378.75 C 142.05398 376.7354 149.21078 370.98291 152.09961 365.32031 C 156.15196 357.37701 155.5746 344.54659 150.87891 338.19531 C 148.20156 334.57401 143.40137 331.46611 138.03906 329.88281 L 134.11328 328.72461 L 138.98828 325.08398 C 145.28265 320.3848 148.11662 314.67838 148.10352 306.73047 C 148.09171 299.55347 144.71962 291.5453 140.47852 288.62109 C 134.06628 284.1999 131.5249 283.79688 110.11328 283.79688 L 89.613281 283.79688 z M 112.11328 303.29688 L 116.00195 303.29688 C 121.66603 303.29688 124.56641 306.00705 124.56641 311.29688 C 124.56641 314.66477 124.00803 315.98862 121.7832 317.90234 C 120.01247 319.42546 117.74806 320.29688 115.55664 320.29688 L 112.11328 320.29688 L 112.11328 311.79688 L 112.11328 303.29688 z M 195.69922 303.59961 C 198.00035 303.66866 200.30412 304.90291 202.3125 307.39258 C 206.24375 312.26589 208.09117 319.93043 208.07617 331.29688 C 208.05646 346.1825 205.32584 355.24151 199.69531 359.09961 C 197.93181 360.30801 196.06675 361.26175 195.55078 361.21875 C 190.93801 360.83055 186.70777 355.67957 184.5957 347.87695 C 182.32143 339.47517 182.88459 318.9992 185.56641 312.54297 C 188.03284 306.60527 191.864 303.48453 195.69922 303.59961 z M 44.974609 316.32031 C 45.036218 316.31953 45.092611 316.36459 45.142578 316.45898 C 45.746138 317.5991 50.113281 340.56175 50.113281 342.5957 C 50.113281 342.9819 47.689618 343.29687 44.728516 343.29688 L 39.345703 343.29688 L 40.744141 336.04688 C 41.513381 332.05936 42.658612 325.71984 43.289062 321.95898 C 43.855171 318.58201 44.543349 316.32576 44.974609 316.32031 z M 118.375 339.46289 C 123.25405 339.48862 128.33387 341.97353 130.125 345.32031 C 132.86594 350.44181 130.09161 357.57199 124.43945 359.93359 C 120.22123 361.69559 113.21127 361.71936 112.54102 359.97266 C 112.26141 359.24396 112.16286 354.40646 112.32227 349.22266 L 112.61328 339.79688 L 117.40234 339.49023 C 117.7248 339.46961 118.04973 339.46118 118.375 339.46289 z "
       id="path3347"
       transform="translate(0,659.05553)" />
    <path
       style="fill:#cd0000;fill-opacity:1"
       d="m 177.58312,762.41272 c -0.93789,-0.001 -1.8695,0.0465 -2.78906,0.14258 -14.48973,1.51448 -28.86484,13.56916 -31.23242,26.18946 -0.35416,1.88785 -0.7069,3.42692 -0.7832,3.41992 -0.0763,-0.007 -2.99202,-0.9071 -6.47852,-2 -4.34236,-1.36119 -9.15064,-1.98828 -15.26758,-1.98828 -19.06529,0 -35.651604,9.91017 -43.142584,25.77734 -9.69958,20.54539 4.45265,38.09402 42.750004,53.00781 17.11354,6.66437 28.47191,10.73084 40,14.32227 6.6,2.05614 12.7283,3.77421 13.61914,3.81641 2.19448,0.10401 20.47083,-18.53249 27.875,-28.42383 11.85279,-15.83429 16.42279,-28.63113 16.42579,-46 0.002,-10.94337 -0.75343,-14.80368 -4.50196,-23 -6.63793,-14.51412 -22.40622,-25.24607 -36.47461,-25.26368 z"
       id="path4155"
       inkscape:connector-curvature="0" />
  </g>
</svg>
