<?xml version="1.0" encoding="UTF-8" standalone="no"?>
<!-- Created with Inkscape (http://www.inkscape.org/) -->

<svg
   xmlns:dc="http://purl.org/dc/elements/1.1/"
   xmlns:cc="http://creativecommons.org/ns#"
   xmlns:rdf="http://www.w3.org/1999/02/22-rdf-syntax-ns#"
   xmlns:svg="http://www.w3.org/2000/svg"
   xmlns="http://www.w3.org/2000/svg"
   xmlns:sodipodi="http://sodipodi.sourceforge.net/DTD/sodipodi-0.dtd"
   xmlns:inkscape="http://www.inkscape.org/namespaces/inkscape"
   width="86mm"
   height="76mm"
   viewBox="0 0 304.72426 269.29118"
   id="svg2"
   version="1.1"
   inkscape:version="0.91 r13725"
   sodipodi:docname="wall-2.svg">
  <defs
     id="defs4" />
  <sodipodi:namedview
     id="base"
     pagecolor="#ffffff"
     bordercolor="#666666"
     borderopacity="1.0"
     inkscape:pageopacity="0.0"
     inkscape:pageshadow="2"
     inkscape:zoom="0.7"
     inkscape:cx="-168.05386"
     inkscape:cy="144.6873"
     inkscape:document-units="px"
     inkscape:current-layer="layer1"
     showgrid="false"
     inkscape:window-width="1366"
     inkscape:window-height="713"
     inkscape:window-x="0"
     inkscape:window-y="30"
     inkscape:window-maximized="1" />
  <metadata
     id="metadata7">
    <rdf:RDF>
      <cc:Work
         rdf:about="">
        <dc:format>image/svg+xml</dc:format>
        <dc:type
           rdf:resource="http://purl.org/dc/dcmitype/StillImage" />
        <dc:title></dc:title>
      </cc:Work>
    </rdf:RDF>
  </metadata>
  <g
     inkscape:label="Camada 1"
     inkscape:groupmode="layer"
     id="layer1"
     transform="translate(0,-783.07143)">
    <g
       id="g4174"
       transform="translate(0,125.99995)">
      <path
         inkscape:connector-curvature="0"
         id="rect4175"
         d="m 153.54292,686.76912 c -28.73173,26.23832 -57.4635,52.4766 -86.19531,78.71484 -5.32896,1.25428 -14.80153,-2.94777 -16.83399,3.03746 0,42.73231 0,85.46461 0,128.19692 3.94281,4.36653 12.21167,1.06963 17.99021,2.0957 31.71355,0 63.4271,0 95.14065,0 0.74495,5.18698 -2.9415,15.914 5.74747,14.14648 29.07571,0 58.15143,0 87.22714,0 4.13053,-4.18436 1.00767,-12.2672 1.98047,-18.10349 -0.0108,-42.42534 -0.004,-84.85153 -0.006,-127.27732 -3.9428,-4.36654 -12.21167,-1.06964 -17.99021,-2.09571 -9.77935,-7.09263 -18.5817,-16.70406 -27.98484,-24.76659 -19.69227,-17.98221 -39.38424,-35.96562 -59.07559,-53.94829 z"
         style="fill:#d7d7d7;fill-opacity:1;stroke:#ffffff;stroke-width:5.1999979;stroke-miterlimit:4;stroke-dasharray:none;stroke-opacity:1" />
      <rect
         ry="2.7844634"
         rx="1.8389319"
         y="885.6875"
         x="53.242218"
         height="20.708126"
         width="202.57892"
         id="rect4168"
         style="fill:#d7d7d7;fill-opacity:1;stroke:none;stroke-width:5.19999981;stroke-miterlimit:4;stroke-dasharray:none;stroke-opacity:1" />
    </g>
    <path
       style="fill:#276d3d;fill-opacity:1;stroke:#ffffff;stroke-width:3.20000005;stroke-miterlimit:4;stroke-dasharray:none;stroke-opacity:1"
       d="m 152.79492,791.18639 c -20.06583,16.30502 -39.13361,34.33589 -58.740232,51.37891 -27.32,24.81883 -55.913126,48.29493 -82.734376,73.61718 15.010888,7.96609 33.379754,-0.95425 45.142579,-11.37695 32.564573,-27.97632 64.279129,-56.96072 96.886719,-84.89258 34.97632,31.17246 69.80725,62.51778 104.73828,93.7461 6.32728,7.69184 37.52512,10.53587 33.23242,-0.63868 -45.6823,-40.57458 -91.3516,-81.22654 -137.26562,-121.5 l -1.25977,-0.33398 z M 90.578125,1019.2294 c -25.724193,-0.083 -52.508932,4.3072 -72.580078,21.6035 -10.0161611,8.3972 13.751194,-3.0161 19.375,-3.2266 42.016655,-7.978 84.687123,-0.241 126.386723,5.9434 35.95369,5.1625 75.65,9.2591 108.52539,-9.4883 5.64706,-3.2548 28.35496,-19.4572 10.5957,-11.2129 -37.33258,14.1165 -78.24443,6.9102 -116.7793,2.7793 -23.39388,-2.7054 -46.79885,-6.2197 -70.396482,-6.3242 -1.703229,-0.043 -3.412006,-0.069 -5.126953,-0.074 z"
       id="path3347"
       inkscape:connector-curvature="0" />
    <path
       style="fill:#cd0000;fill-opacity:1"
       d="m 177.58312,888.41272 c -0.93789,-0.001 -1.8695,0.0465 -2.78906,0.14258 -14.48973,1.51448 -28.86484,13.56916 -31.23242,26.18946 -0.35416,1.88785 -0.7069,3.42692 -0.7832,3.41992 -0.0763,-0.007 -2.99202,-0.9071 -6.47852,-2 -4.34236,-1.36119 -9.15064,-1.98828 -15.26758,-1.98828 -19.06529,0 -35.651604,9.91017 -43.142584,25.77734 -9.69958,20.54539 4.45265,38.09402 42.750004,53.00781 17.11354,6.66435 28.47191,10.73085 40,14.32225 6.6,2.0562 12.7283,3.7742 13.61914,3.8164 2.19448,0.104 20.47083,-18.53246 27.875,-28.4238 11.85279,-15.83429 16.42279,-28.63113 16.42579,-46 0.002,-10.94337 -0.75343,-14.80368 -4.50196,-23 -6.63793,-14.51412 -22.40622,-25.24607 -36.47461,-25.26368 z"
       id="path4155"
       inkscape:connector-curvature="0" />
  </g>
</svg>
